<?xml version="1.0" encoding="utf-8"?>
<!-- Generator: Adobe Illustrator 22.1.0, SVG Export Plug-In . SVG Version: 6.00 Build 0)  -->
<svg version="1.1" xmlns="http://www.w3.org/2000/svg" xmlns:xlink="http://www.w3.org/1999/xlink" x="0px" y="0px"
	 viewBox="0 0 1000 1000" style="enable-background:new 0 0 1000 1000;" xml:space="preserve">
<style type="text/css">
	.st0{display:none;}
	.st1{display:inline;fill:url(#SVGID_1_);}
	.st2{display:inline;fill:#FFFFFF;}
	.st3{display:inline;fill:url(#SVGID_2_);}
	.st4{fill:url(#SVGID_3_);}
	.st5{font-family:'ErasITC-Light';}
	.st6{font-size:280.6415px;}
	.st7{display:inline;}
	.st8{fill:#3C3C3B;}
	.st9{fill:url(#SVGID_4_);}
	.st10{fill:#FFFFFF;}
	.st11{fill:url(#SVGID_5_);}
	.st12{fill:url(#SVGID_6_);}
	.st13{display:none;fill:#FFFFFF;}
	.st14{font-size:241.4971px;}
	.st15{fill:none;stroke:#FFFFFF;stroke-width:2;stroke-miterlimit:10;}
</style>
<g id="Ebene_1" class="st0">
	
		<linearGradient id="SVGID_1_" gradientUnits="userSpaceOnUse" x1="85.0804" y1="613.6201" x2="946.6084" y2="377.7024" gradientTransform="matrix(0.7071 0.7071 -0.7071 0.7071 500 -207.1068)">
		<stop  offset="0.1905" style="stop-color:#7CCEF4"/>
		<stop  offset="0.3912" style="stop-color:#36A9E1"/>
		<stop  offset="0.7141" style="stop-color:#1D71B8"/>
		<stop  offset="0.7688" style="stop-color:#2365AF"/>
		<stop  offset="0.8795" style="stop-color:#2F4899"/>
		<stop  offset="1" style="stop-color:#312783"/>
	</linearGradient>
	<circle class="st1" cx="500" cy="500" r="444.5"/>
	<polygon class="st2" points="567.3,383.5 432.7,383.5 365.5,500 432.7,616.5 567.3,616.5 634.5,500 	"/>
	
		<linearGradient id="SVGID_2_" gradientUnits="userSpaceOnUse" x1="376.1388" y1="146.3773" x2="645.1002" y2="146.4275" gradientTransform="matrix(-0.8472 -0.4892 -10.4088 18.0286 2219.7395 -2027.6624)">
		<stop  offset="5.713901e-02" style="stop-color:#FFFFFF;stop-opacity:0.7"/>
		<stop  offset="0.902" style="stop-color:#FFFFFF;stop-opacity:0"/>
	</linearGradient>
	<polygon class="st3" points="95.7,343 354.3,492.3 421.6,375.8 163,226.5 	"/>
	
		<linearGradient id="SVGID_3_" gradientUnits="userSpaceOnUse" x1="189.7676" y1="141.1517" x2="458.729" y2="141.2019" gradientTransform="matrix(-3.000000e-15 0.9783 20.8176 1.120000e-13 -2438.9846 454.2862)">
		<stop  offset="5.713901e-02" style="stop-color:#FFFFFF;stop-opacity:0.7"/>
		<stop  offset="0.902" style="stop-color:#FFFFFF;stop-opacity:0"/>
	</linearGradient>
	<polygon class="st4" points="567.3,926.1 567.3,627.5 432.7,627.5 432.7,926.1 	"/>
	<text transform="matrix(1 0 0 1 154.335 849.8671)" class="st2 st5 st6">CORE</text>
	<g>
		<g class="st7">
			<g>
				<path class="st8" d="M261.5,884.9h16.8V1018h-16.8V884.9z"/>
				<path class="st8" d="M325.1,901.7c0,5.6-4,10.4-10.7,10.4c-6.1,0-10.2-4.7-10.2-10.4c0-5.7,4.3-10.4,10.5-10.4
					C321,891.4,325,895.9,325.1,901.7z M306.3,1018v-90.5h16.8v90.5H306.3z"/>
				<path class="st8" d="M350,1018c0.5-6.3,0.7-15.3,0.7-23.5V884.9h16.8v57.3h0.4c5.8-10.2,16.5-16.8,31.6-16.8
					c23,0,39.2,18.8,39.1,46.1c0,32.5-21,48.6-41.6,48.6c-13.2,0-24-5.1-31.1-17.1h-0.4l-0.8,15H350z M367.5,981.4
					c0,2,0.2,4.1,0.7,6c3,11.2,12.9,19.4,25.2,19.4c17.6,0,28.1-13.8,28.1-34.6c0-18.1-9.7-33.5-27.6-33.5
					c-11.4,0-22.1,7.7-25.5,20.4c-0.5,2-1,4.2-1,6.8V981.4z"/>
				<path class="st8" d="M459.5,956c0-10.9-0.3-20.1-0.7-28.5h14.8l0.6,18h0.6c4.3-12.4,14.5-20.1,25.6-20.1c1.8,0,3.2,0.1,4.7,0.5
					v15.8c-1.7-0.4-3.5-0.5-5.8-0.5c-11.7,0-20,8.7-22.3,21.1c-0.4,2.3-0.7,5-0.7,7.6v48.2h-16.8V956z"/>
				<path class="st8" d="M573.1,1018l-1.5-11.5h-0.5c-5.1,7.1-15,13.6-28.3,13.6c-18.7,0-28.1-13.2-28.1-26
					c0-21.9,19.5-34.1,55.4-33.8v-1.8c0-7-2-20.8-20.9-20.7c-8.6,0-17.7,2.6-24.2,6.9l-3.8-11.2c7.7-4.9,18.9-8.1,30.6-8.1
					c28.3,0,35.1,19.3,35.1,37.4v33.5c0,7.8,0.4,15.5,1.4,21.7H573.1z M570.5,971.9c-18.4-0.4-38.8,2.9-38.8,20.1
					c0,10.7,7.1,15.6,15.6,15.6c12.2,0,19.8-7.6,22.5-15.2c0.6-1.7,0.8-3.6,0.8-5.2V971.9z"/>
				<path class="st8" d="M613.9,956c0-10.9-0.3-20.1-0.7-28.5h14.8l0.6,18h0.6c4.3-12.4,14.5-20.1,25.6-20.1c1.8,0,3.2,0.1,4.7,0.5
					v15.8c-1.7-0.4-3.5-0.5-5.8-0.5c-11.7,0-20,8.7-22.3,21.1c-0.4,2.3-0.7,5-0.7,7.6v48.2h-16.8V956z"/>
				<path class="st8" d="M682.5,927.5l20.2,53.4c2.1,5.9,4.4,13.1,5.9,18.4h0.5c1.6-5.3,3.7-12.3,5.9-18.8l18.2-53h18l-25.3,64.8
					c-12.2,31.8-20.4,47.2-31.6,56.7c-8.3,7-16.5,9.7-20.6,10.4l-4.1-14.1c4.1-1.2,9.5-3.7,14.5-7.7c4.5-3.5,10.1-9.8,14.1-18.4
					c0.8-1.7,1.3-2.9,1.3-3.9c0-0.9-0.3-2.2-1.2-4.3l-34.1-83.5H682.5z"/>
			</g>
		</g>
	</g>
</g>
<g id="Ebene_2">
	
		<linearGradient id="SVGID_4_" gradientUnits="userSpaceOnUse" x1="72.1802" y1="517.9768" x2="813.5405" y2="314.9653" gradientTransform="matrix(0.7071 0.7071 -0.7071 0.7071 500 -207.1068)">
		<stop  offset="0.1905" style="stop-color:#7CCEF4"/>
		<stop  offset="0.3912" style="stop-color:#36A9E1"/>
		<stop  offset="0.7141" style="stop-color:#1D71B8"/>
		<stop  offset="0.7688" style="stop-color:#2365AF"/>
		<stop  offset="0.8795" style="stop-color:#2F4899"/>
		<stop  offset="1" style="stop-color:#312783"/>
	</linearGradient>
	<circle class="st9" cx="506.4" cy="393.5" r="382.5"/>
	<polygon class="st10" points="564.3,293.3 448.5,293.3 390.6,393.5 448.5,493.8 564.3,493.8 622.1,393.5 	"/>
	
		<linearGradient id="SVGID_5_" gradientUnits="userSpaceOnUse" x1="404.5939" y1="141.8061" x2="636.04" y2="141.8493" gradientTransform="matrix(-0.8472 -0.4892 -10.4088 18.0286 2219.7395 -2027.6624)">
		<stop  offset="5.713901e-02" style="stop-color:#FFFFFF;stop-opacity:0.7"/>
		<stop  offset="0.902" style="stop-color:#FFFFFF;stop-opacity:0"/>
	</linearGradient>
	<polygon class="st11" points="158.5,258.4 381,386.9 438.9,286.6 216.4,158.2 	"/>
	
		<linearGradient id="SVGID_6_" gradientUnits="userSpaceOnUse" x1="63.6519" y1="141.4617" x2="295.098" y2="141.5049" gradientTransform="matrix(-3.000000e-15 0.9783 20.8176 1.120000e-13 -2438.9846 454.2862)">
		<stop  offset="5.713901e-02" style="stop-color:#FFFFFF;stop-opacity:0.7"/>
		<stop  offset="0.902" style="stop-color:#FFFFFF;stop-opacity:0"/>
	</linearGradient>
	<polygon class="st12" points="564.3,762.8 564.3,505.8 448.5,505.8 448.5,762.8 	"/>
	<text transform="matrix(1 0 0 1 208.9287 694.5977)" class="st13 st5 st14">CORE</text>
	<circle class="st15" cx="506.4" cy="393.5" r="374.2"/>
	<g>
		<g>
			<g>
				<path d="M159.2,933.2c-6.2,3.1-19.2,6.4-35.6,6.4c-37.8,0-66-23.6-66-66.4c0-40.5,27.9-68.7,69.8-68.7c16.7,0,27.5,3.5,32.1,5.9
					l-4.3,14c-6.6-3.1-16-5.5-27.2-5.5c-31.7,0-52.2,19.9-52.2,53.8c0,31.4,18.6,52.2,51.2,52.2c10.7,0,21.5-2.1,28.6-5.5
					L159.2,933.2z"/>
				<path d="M267.1,889.6c0,34.7-24.6,50.1-47.8,50.1c-26.1,0-46.2-18.8-46.2-48.4c0-31.2,21-49.9,47.7-49.9
					C248.6,841.4,267.1,861.3,267.1,889.6z M191,890.7c0,20.8,12.3,35.9,29.1,35.9c16.5,0,29.3-14.8,29.3-36.4
					c0-15.9-8.3-35.8-28.9-35.8C200,854.4,191,872.8,191,890.7z"/>
				<path d="M288.9,873.2c0-11.4-0.3-20.8-0.8-29.6h15.3l0.7,18.6h0.6c4.5-12.9,15-20.8,26.6-20.8c1.9,0,3.3,0.1,4.9,0.5v16.4
					c-1.8-0.4-3.6-0.5-6-0.5c-12.2,0-20.8,9-23.1,21.8c-0.4,2.4-0.7,5.2-0.7,7.9v50h-17.4V873.2z"/>
				<path d="M363.5,893.9c0.4,22.5,15.2,32.1,32.7,32.1c12.5,0,20.2-2.2,26.7-4.9l3,12.4c-6.1,2.7-16.7,6.1-32.1,6.1
					c-29.3,0-47.1-19.3-47.1-47.4c0-28.2,17-50.8,45.1-50.8c31.4,0,39.5,27.3,39.5,44.4c0,3.6-0.2,6.2-0.6,8.1H363.5z M414.5,881.3
					c0.2-10.1-4.2-27.5-24-27.5c-17.8,0-25.4,15.8-26.8,27.5H414.5z"/>
				<path d="M452.9,799.4h17.4v138.1h-17.4V799.4z"/>
				<path d="M518.9,816.9c0,5.9-4.2,10.8-11.1,10.8c-6.3,0-10.6-4.9-10.5-10.8c0-5.9,4.4-10.8,10.9-10.8
					C514.6,806.1,518.8,810.9,518.9,816.9z M499.4,937.5v-93.9h17.4v93.9H499.4z"/>
				<path d="M544.8,937.5c0.5-6.5,0.8-15.9,0.8-24.4V799.4h17.4v59.4h0.4c6.1-10.6,17.2-17.4,32.8-17.4c23.9,0,40.6,19.5,40.5,47.8
					c0,33.7-21.8,50.4-43.2,50.4c-13.7,0-24.9-5.3-32.2-17.8h-0.4l-0.9,15.6H544.8z M562.9,899.5c0,2.1,0.3,4.2,0.7,6.2
					c3.2,11.6,13.4,20.1,26.2,20.1c18.2,0,29.1-14.3,29.1-35.9c0-18.8-10-34.8-28.6-34.8c-11.8,0-22.9,8-26.4,21.1
					c-0.5,2.1-1,4.4-1,7.1V899.5z"/>
				<path d="M658.4,873.2c0-11.4-0.3-20.8-0.8-29.6h15.3l0.7,18.6h0.6c4.5-12.9,15-20.8,26.6-20.8c1.9,0,3.3,0.1,4.9,0.5v16.4
					c-1.8-0.4-3.6-0.5-6-0.5c-12.2,0-20.8,9-23.1,21.8c-0.4,2.4-0.7,5.2-0.7,7.9v50h-17.4V873.2z"/>
				<path d="M776.3,937.5l-1.5-11.9h-0.5c-5.2,7.3-15.6,14.1-29.3,14.1c-19.4,0-29.2-13.7-29.2-27c0-22.7,20.3-35.4,57.5-35.1v-1.9
					c0-7.2-2.1-21.6-21.7-21.5c-9,0-18.4,2.7-25.1,7.1l-4-11.6c8-5.1,19.6-8.4,31.7-8.4c29.4,0,36.4,20.1,36.4,38.8v34.7
					c0,8.1,0.4,16.1,1.4,22.6H776.3z M773.6,889.7c-19.1-0.4-40.3,3-40.3,20.9c0,11.1,7.4,16.2,16.1,16.2c12.6,0,20.5-7.9,23.3-15.7
					c0.6-1.8,0.8-3.7,0.8-5.4V889.7z"/>
				<path d="M818.6,873.2c0-11.4-0.3-20.8-0.8-29.6h15.3l0.7,18.6h0.6c4.5-12.9,15-20.8,26.6-20.8c1.9,0,3.3,0.1,4.9,0.5v16.4
					c-1.8-0.4-3.6-0.5-6-0.5c-12.2,0-20.8,9-23.1,21.8c-0.4,2.4-0.7,5.2-0.7,7.9v50h-17.4V873.2z"/>
				<path d="M889.8,843.6l20.9,55.4c2.2,6.1,4.6,13.6,6.2,19.1h0.5c1.7-5.5,3.8-12.7,6.1-19.5l18.9-55H961l-26.3,67.2
					c-12.6,33-21.1,49-32.8,58.9c-8.6,7.3-17.1,10.1-21.4,10.8l-4.2-14.6c4.3-1.3,9.9-3.8,15-8c4.7-3.6,10.5-10.2,14.6-19.1
					c0.9-1.8,1.3-3,1.3-4.1c0-1-0.3-2.3-1.2-4.5l-35.4-86.6H889.8z"/>
			</g>
		</g>
	</g>
</g>
</svg>
